<svg xmlns="http://www.w3.org/2000/svg" viewBox="0 0 508 508">
  <path d="M114.7,172.1c-45.2,0-81.9,36.8-81.9,81.9c0,4.5,3.7,8.2,8.2,8.2s8.2-3.7,8.2-8.2c0-36.1,29.4-65.5,65.5-65.5
    c4.5,0,8.2-3.7,8.2-8.2C122.9,175.7,119.2,172.1,114.7,172.1z"/>
  <path d="M417.9,327.7c-31.3,0-58.8,16-75,40.3l-123.7-66.9c6.5-14.4,10.3-30.3,10.3-47.1s-3.7-32.7-10.3-47.1L342.9,140
    c16.2,24.2,43.7,40.3,75,40.3c49.7,0,90.1-40.4,90.1-90.1C508,40.5,467.6,0,417.9,0s-90.1,40.4-90.1,90.1
    c0,12.6,2.6,24.6,7.3,35.5l-123.7,66.9c-20.4-31.9-56-53.2-96.6-53.2C51.5,139.3,0,190.7,0,254s51.5,114.7,114.7,114.7
    c40.6,0,76.2-21.3,96.6-53.2L335,382.4c-4.7,10.9-7.3,22.9-7.3,35.5c0,49.7,40.4,90.1,90.1,90.1s90.1-40.4,90.1-90.1
    S467.6,327.7,417.9,327.7z M417.9,16.4c40.7,0,73.7,33.1,73.7,73.7c0,40.6-33.1,73.7-73.7,73.7c-40.6,0-73.7-33.1-73.7-73.7
    S377.2,16.4,417.9,16.4z M114.7,352.3c-54.2,0-98.3-44.1-98.3-98.3c0-54.2,44.1-98.3,98.3-98.3S213,199.8,213,254
    S168.9,352.3,114.7,352.3z M417.9,491.6c-40.7,0-73.7-33.1-73.7-73.7s33.1-73.7,73.7-73.7c40.6,0,73.7,33.1,73.7,73.7
    C491.6,458.5,458.5,491.6,417.9,491.6z"/>
</svg>
