<svg xmlns="http://www.w3.org/2000/svg" xmlns:xlink="http://www.w3.org/1999/xlink"><symbol id="check" viewBox="0 0 10 7">
  <path fill="#262630" d="M421,883.75l-3.334,3.5h0L416,889h0l-1.667-1.75h0L411,883.75l1.667-1.75L416,885.5l3.333-3.5Z" transform="translate(-411 -882)"/>
</symbol><symbol id="facebook" viewBox="0 0 512 512">
	<path d="M288,176v-64c0-17.664,14.336-32,32-32h32V0h-64c-53.024,0-96,42.976-96,96v80h-64v80h64v256h96V256h64l32-80H288z"/>
</symbol><symbol id="link" viewBox="0 0 469.33333 469.33333">
    <path d="m354.496094 312.769531c-5.460938 0-10.921875-2.09375-15.082032-6.253906-8.34375-8.339844-8.34375-21.824219 0-30.164063l56.851563-56.851562c19.628906-19.4375 30.402344-45.421875 30.402344-73.21875 0-57.128906-46.488281-103.613281-103.617188-103.613281-27.777343 0-53.761719 10.773437-73.152343 30.335937l-56.917969 56.917969c-8.339844 8.339844-21.824219 8.339844-30.164063 0-8.339844-8.34375-8.339844-21.824219 0-30.167969l56.851563-56.851562c27.394531-27.648438 64.128906-42.902344 103.382812-42.902344 80.660157 0 146.28125 65.621094 146.28125 146.28125 0 39.277344-15.253906 76.011719-42.984375 103.46875l-56.789062 56.765625c-4.160156 4.160156-9.601563 6.253906-15.0625 6.253906zm0 0"/>
    <path d="m146.28125 469.332031c-80.660156 0-146.28125-65.621093-146.28125-146.28125 0-39.273437 15.253906-76.011719 42.988281-103.464843l56.789063-56.769532c8.339844-8.339844 21.824218-8.339844 30.164062 0s8.339844 21.824219 0 30.164063l-56.851562 56.855469c-19.648438 19.433593-30.421875 45.417968-30.421875 73.214843 0 57.128907 46.484375 103.617188 103.613281 103.617188 27.777344 0 53.761719-10.773438 73.152344-30.335938l56.917968-56.917969c8.339844-8.34375 21.824219-8.34375 30.164063 0 8.34375 8.339844 8.34375 21.824219 0 30.164063l-56.851563 56.855469c-27.390624 27.644531-64.128906 42.898437-103.382812 42.898437zm0 0"/>
    <path d="m149.332031 341.332031c-5.460937 0-10.921875-2.089843-15.082031-6.25-8.339844-8.339843-8.339844-21.824219 0-30.164062l170.667969-170.667969c8.339843-8.339844 21.824219-8.339844 30.164062 0 8.34375 8.34375 8.34375 21.824219 0 30.164062l-170.667969 170.667969c-4.15625 4.160157-9.621093 6.25-15.082031 6.25zm0 0"/>
</symbol><symbol id="odnoklassniki" viewBox="0 0 24 24">
    <path d="m4.721 12.881c-.613 1.205.083 1.781 1.671 2.765 1.35.834 3.215 1.139 4.413 1.261-.491.472 1.759-1.692-4.721 4.541-1.374 1.317.838 3.43 2.211 2.141l3.717-3.585c1.423 1.369 2.787 2.681 3.717 3.59 1.374 1.294 3.585-.801 2.226-2.141-.102-.097-5.037-4.831-4.736-4.541 1.213-.122 3.05-.445 4.384-1.261l-.001-.001c1.588-.989 2.284-1.564 1.68-2.769-.365-.684-1.349-1.256-2.659-.267 0 0-1.769 1.355-4.622 1.355-2.854 0-4.622-1.355-4.622-1.355-1.309-.994-2.297-.417-2.658.267z"/>
    <path d="m11.999 12.142c3.478 0 6.318-2.718 6.318-6.064 0-3.36-2.84-6.078-6.318-6.078-3.479 0-6.319 2.718-6.319 6.078 0 3.346 2.84 6.064 6.319 6.064zm0-9.063c1.709 0 3.103 1.341 3.103 2.999 0 1.644-1.394 2.985-3.103 2.985s-3.103-1.341-3.103-2.985c-.001-1.659 1.393-2.999 3.103-2.999z"/>
</symbol><symbol id="share" viewBox="0 0 508 508">
  <path d="M114.7,172.1c-45.2,0-81.9,36.8-81.9,81.9c0,4.5,3.7,8.2,8.2,8.2s8.2-3.7,8.2-8.2c0-36.1,29.4-65.5,65.5-65.5
    c4.5,0,8.2-3.7,8.2-8.2C122.9,175.7,119.2,172.1,114.7,172.1z"/>
  <path d="M417.9,327.7c-31.3,0-58.8,16-75,40.3l-123.7-66.9c6.5-14.4,10.3-30.3,10.3-47.1s-3.7-32.7-10.3-47.1L342.9,140
    c16.2,24.2,43.7,40.3,75,40.3c49.7,0,90.1-40.4,90.1-90.1C508,40.5,467.6,0,417.9,0s-90.1,40.4-90.1,90.1
    c0,12.6,2.6,24.6,7.3,35.5l-123.7,66.9c-20.4-31.9-56-53.2-96.6-53.2C51.5,139.3,0,190.7,0,254s51.5,114.7,114.7,114.7
    c40.6,0,76.2-21.3,96.6-53.2L335,382.4c-4.7,10.9-7.3,22.9-7.3,35.5c0,49.7,40.4,90.1,90.1,90.1s90.1-40.4,90.1-90.1
    S467.6,327.7,417.9,327.7z M417.9,16.4c40.7,0,73.7,33.1,73.7,73.7c0,40.6-33.1,73.7-73.7,73.7c-40.6,0-73.7-33.1-73.7-73.7
    S377.2,16.4,417.9,16.4z M114.7,352.3c-54.2,0-98.3-44.1-98.3-98.3c0-54.2,44.1-98.3,98.3-98.3S213,199.8,213,254
    S168.9,352.3,114.7,352.3z M417.9,491.6c-40.7,0-73.7-33.1-73.7-73.7s33.1-73.7,73.7-73.7c40.6,0,73.7,33.1,73.7,73.7
    C491.6,458.5,458.5,491.6,417.9,491.6z"/>
</symbol><symbol id="twitter" viewBox="0 0 512 512">
	<path d="M512,97.248c-19.04,8.352-39.328,13.888-60.48,16.576c21.76-12.992,38.368-33.408,46.176-58.016
		c-20.288,12.096-42.688,20.64-66.56,25.408C411.872,60.704,384.416,48,354.464,48c-58.112,0-104.896,47.168-104.896,104.992
		c0,8.32,0.704,16.32,2.432,23.936c-87.264-4.256-164.48-46.08-216.352-109.792c-9.056,15.712-14.368,33.696-14.368,53.056
		c0,36.352,18.72,68.576,46.624,87.232c-16.864-0.32-33.408-5.216-47.424-12.928c0,0.32,0,0.736,0,1.152
		c0,51.008,36.384,93.376,84.096,103.136c-8.544,2.336-17.856,3.456-27.52,3.456c-6.72,0-13.504-0.384-19.872-1.792
		c13.6,41.568,52.192,72.128,98.08,73.12c-35.712,27.936-81.056,44.768-130.144,44.768c-8.608,0-16.864-0.384-25.12-1.44
		C46.496,446.88,101.6,464,161.024,464c193.152,0,298.752-160,298.752-298.688c0-4.64-0.16-9.12-0.384-13.568
		C480.224,136.96,497.728,118.496,512,97.248z"/>
</symbol><symbol id="vk" viewBox="0 0 511.962 511.962">
	<path d="M507.399,370.471c-1.376-2.304-9.888-20.8-50.848-58.816c-42.88-39.808-37.12-33.344,14.528-102.176
		c31.456-41.92,44.032-67.52,40.096-78.464c-3.744-10.432-26.88-7.68-26.88-7.68l-76.928,0.448c0,0-5.696-0.768-9.952,1.76
		c-4.128,2.496-6.784,8.256-6.784,8.256s-12.192,32.448-28.448,60.032c-34.272,58.208-48,61.28-53.6,57.664
		c-13.024-8.416-9.76-33.856-9.76-51.904c0-56.416,8.544-79.936-16.672-86.016c-8.384-2.016-14.528-3.36-35.936-3.584
		c-27.456-0.288-50.72,0.096-63.872,6.528c-8.768,4.288-15.52,13.856-11.392,14.4c5.088,0.672,16.608,3.104,22.72,11.424
		c7.904,10.72,7.616,34.848,7.616,34.848s4.544,66.4-10.592,74.656c-10.4,5.664-24.64-5.888-55.2-58.72
		c-15.648-27.04-27.488-56.96-27.488-56.96s-2.272-5.568-6.336-8.544c-4.928-3.616-11.84-4.768-11.84-4.768l-73.152,0.448
		c0,0-10.976,0.32-15.008,5.088c-3.584,4.256-0.288,13.024-0.288,13.024s57.28,133.984,122.112,201.536
		c59.488,61.92,127.008,57.856,127.008,57.856h30.592c0,0,9.248-1.024,13.952-6.112c4.352-4.672,4.192-13.44,4.192-13.44
		s-0.608-41.056,18.464-47.104c18.784-5.952,42.912,39.68,68.48,57.248c19.328,13.28,34.016,10.368,34.016,10.368l68.384-0.96
		C488.583,400.807,524.359,398.599,507.399,370.471z"/>
</symbol></svg>