<svg viewBox="0 0 469.333 469.333" xmlns="http://www.w3.org/2000/svg"><path d="M354.496 312.77a21.277 21.277 0 01-15.082-6.254c-8.344-8.34-8.344-21.825 0-30.164l56.852-56.852c19.629-19.438 30.402-45.422 30.402-73.219 0-57.129-46.488-103.613-103.617-103.613-27.778 0-53.762 10.773-73.153 30.336l-56.918 56.918c-8.34 8.34-21.824 8.34-30.164 0-8.34-8.344-8.34-21.824 0-30.168l56.852-56.852C247.062 15.254 283.797 0 323.051 0c80.66 0 146.281 65.621 146.281 146.281 0 39.278-15.254 76.012-42.984 103.469l-56.79 56.766a21.233 21.233 0 01-15.062 6.254zM146.281 469.332C65.621 469.332 0 403.711 0 323.051c0-39.274 15.254-76.012 42.988-103.465l56.79-56.77c8.34-8.34 21.824-8.34 30.163 0s8.34 21.825 0 30.164L73.09 249.836c-19.65 19.434-30.422 45.418-30.422 73.214 0 57.129 46.484 103.617 103.613 103.617 27.778 0 53.762-10.773 73.153-30.336l56.918-56.918c8.34-8.344 21.824-8.344 30.164 0 8.343 8.34 8.343 21.824 0 30.164l-56.852 56.856c-27.39 27.644-64.129 42.898-103.383 42.898zm0 0"/><path d="M149.332 341.332c-5.46 0-10.922-2.09-15.082-6.25-8.34-8.34-8.34-21.824 0-30.164L304.918 134.25c8.34-8.34 21.824-8.34 30.164 0 8.344 8.344 8.344 21.824 0 30.164L164.414 335.082a21.266 21.266 0 01-15.082 6.25zm0 0"/></svg>